<svg xmlns="http://www.w3.org/2000/svg" class="svg-logo" width="2400" height="2400" viewBox="0 0 630 430" style="height: auto;"><rect width="630" height="630" y="-100" rx="0" ry="0" fill="transparent" fill-opacity="0"></rect><g data-element="wrapper" transform="translate(110.2500192165345 66.26981697082303) scale(0.6500000000000095)"><g ><g data-element="icon" transform="scale(0.1693641710937618) translate(2.643248979692487 971.8133258926779)"><path id="color_x5F_1_29_" d="M143.73,480.642c-2.131,5.504-7.461,9.414-13.719,9.414c-8.131,0-14.723-6.59-14.723-14.721    s6.592-14.721,14.723-14.721c2.26,0,4.393,0.523,6.307,1.434c9.006-3.572,44.785-19.531,68.641-55.662    c-0.641-1.65-1.004-3.438-1.004-5.313c0-8.131,6.59-14.723,14.721-14.723s14.721,6.592,14.721,14.723    c0,6.566-4.301,12.125-10.24,14.021C196.223,457.683,155.463,476.056,143.73,480.642z M180.01,99.714    c6.086,0.266,11.469-3.203,13.934-8.377c0.094-0.051,25.953-15.105,65.328-21.18c52.461-8.096,103.625,2.311,152.074,30.92    c0.193,0.113,1.09,9.348,14.254,11.545c8.02,1.339,14.994-5.945,15.348-14.068c0.352-8.123-5.947-14.994-14.07-15.348    c-1.83-0.08-3.59,0.193-5.23,0.734c-0.045-0.027-0.086-0.059-0.131-0.086c-65.811-38.859-126.713-39.568-166.217-33.318    c-34.572,5.469-58.945,16.898-67.723,21.498c-1.885-1.008-4.01-1.635-6.287-1.734c-8.123-0.354-14.994,5.945-15.348,14.068    S171.887,99.362,180.01,99.714z M334.152,355.464c-1.848-17.855-10.277-29.051-25.059-33.275    c-16.855-4.814-35.158-0.764-59.561,28.389c-7.85,0.318-14.121,6.764-14.121,14.691c0,8.131,6.59,14.721,14.721,14.721    s16.303-5.064,14.652-16.113c1.848-3.066,17.15-29.451,38.814-22.457c13.484,4.354,12.607,21.676,7.285,58.516    c-1.873,12.967-3.795,26.262-4.395,39.471c-3.154,2.699-5.162,6.703-5.162,11.182c0,8.131,6.592,14.723,14.723,14.723    s14.721-6.592,14.721-14.723c0-4.055-1.641-7.725-4.291-10.387c0.566-12.258,2.404-24.99,4.199-37.404    C333.188,385.437,335.557,369.042,334.152,355.464z M76.143,309.39c0-1.123-0.137-2.213-0.375-3.264    c6.627-11.469,18.309-29.996,34.447-49.18c21.826-25.945,56.209-58.057,99.619-69.945c2.271,1.434,4.955,2.277,7.842,2.277    c8.131,0,14.721-6.59,14.721-14.721s-6.59-14.723-14.721-14.723c-5.643,0-10.539,3.178-13.01,7.84    c-38.865,10.643-76.68,36.957-110.08,76.783c-16.42,19.576-28.334,38.219-35.436,50.404c-7.049,1.094-12.449,7.172-12.449,14.527    c0,8.131,6.59,14.723,14.721,14.723S76.143,317.521,76.143,309.39z M328.387,518.229c-5.824,0-10.844,3.393-13.23,8.301    c-8.133,0.82-18.004,0.313-22.008-3.387c-0.699-0.645-2.822-2.607-1.934-9.129c3.018-22.125-5.787-41.91-21.41-48.113    c-5.533-2.193-14.428-3.662-25.389,1.83c-8.334,4.178-16.453,11.746-24.133,22.498c-4.842,6.777-10.104,10.441-15.645,10.891    c-3.115,0.26-6.273-0.488-9.174-1.67c-0.979-7.182-7.121-12.719-14.57-12.719c-8.131,0-14.721,6.59-14.721,14.721    s6.59,14.723,14.721,14.723c0.875,0,11.541,6.25,25.184,4.895c11.732-1.166,22.012-7.359,30.48-19.215    c9.482-13.277,19.387-19.926,25.867-17.363c5.889,2.338,10.857,13.01,8.973,26.82c-1.902,13.951,3.418,22.143,8.217,26.559    c7.832,7.207,19.34,9.02,28.943,9.02c5.082,0,9.621-0.508,12.811-0.994c2.086,1.135,4.477,1.777,7.018,1.777    c8.131,0,14.723-6.59,14.723-14.721S336.518,518.229,328.387,518.229z M392.332,515.819c-1.092,0-3.477,0.072-3.725-0.153    c-4.482-4.047-29.195-27.015-11.629-103.772c11.922-52.098,21.17-118.076-41.459-146.092    c-31.777-14.215-65.811-7.617-101.152,19.609c-30.418,23.434-56.963,58.139-76.689,85.756    c-26.85,37.592-50.254,42.463-58.781,42.871c-2.375-1.643-5.254-2.611-8.361-2.611c-8.131,0-14.723,6.59-14.723,14.721    s6.592,14.721,14.723,14.721c5.373,0,10.061-2.887,12.631-7.186c4.35-0.504,9.785-1.639,16.039-4.035    c19.439-7.449,37.859-23.213,54.748-46.855c42.176-59.049,97.729-123.633,153.4-98.734c21.637,9.68,33.182,25.42,36.328,49.533    c2.957,22.648-1.795,49.146-6.389,74.773c-2.826,15.756-5.494,30.641-6.385,44.443c-3.299,51.109,21.168,75.205,26.912,80.123    c1.145,6.992,7.197,12.332,14.512,12.332c8.131,0,14.721-6.59,14.721-14.721S400.463,515.819,392.332,515.819z M359.295,160.017    c-31.584-8.43-59.305-7.742-73.371-6.521c-2.699-3.279-6.789-5.371-11.369-5.371c-8.131,0-14.723,6.592-14.723,14.723    s6.592,14.721,14.723,14.721c3.807,0,7.264-1.457,9.877-3.828c10.723-1.16,38.197-2.809,69.705,5.602    c23.578,6.293,44.623,16.941,62.549,31.648c22.484,18.449,40.215,43.473,52.695,74.379c26.896,66.602,11.43,133.162,4.471,156.332    c-5.771,1.992-9.924,7.459-9.924,13.906c0,8.131,6.592,14.721,14.723,14.721s14.721-6.59,14.721-14.721    c0-1.99-0.4-3.887-1.115-5.619c2.932-9.234,7.615-26.328,10.334-48.363c6.83-55.355-4.205-97.848-14.664-123.746    C456.678,200.503,400.729,171.077,359.295,160.017z M543.57,345.862c0.107-0.449,0.195-0.904,0.24-1.377    c5.342-55.191-17.25-116.537-60.432-164.1c-47.465-52.281-112.715-81.072-183.73-81.072c-79.438,0-137.291,27.766-171.834,51.061    c-31.834,21.465-55.6,49.611-55.684,49.611c-8.131,0-14.721,6.59-14.721,14.721s6.59,14.723,14.721,14.723    s14.723-6.592,14.723-14.723c0-0.232,17.406-24.328,52.143-47.75c32.232-21.734,86.268-47.643,160.652-47.643    c65.305,0,124.762,26.953,168.922,74.516c67.865,73.096,55.318,150.979,55.572,152.031c-3.064,2.697-5.008,6.639-5.008,11.043    c0,8.131,6.59,14.723,14.721,14.723s14.723-6.592,14.723-14.723C548.578,352.501,546.635,348.56,543.57,345.862z M445.828,480.226    c-0.742,0-1.463,0.072-2.174,0.178c-6.832-5.949-18.422-20.658-11.561-48.561c13.275-53.99,13.549-100.533,0.814-138.334    c-13.684-40.613-41.564-69.145-82.873-84.807c-29.834-11.311-61.324-10.91-93.598,1.184    c-38.498,14.428-78.104,45.771-117.713,93.162c-31.596,37.803-52.391,45.875-61.609,47.422c-2.627-2.439-6.135-3.941-10.002-3.941    c-8.131,0-14.721,6.59-14.721,14.721s6.59,14.723,14.721,14.723c4.639,0,8.77-2.15,11.469-5.502    c3.814-0.477,8.387-1.533,13.705-3.621c18.939-7.436,39.727-24.586,61.783-50.975c37.363-44.703,74.166-74.063,109.387-87.262    c27.59-10.338,54.332-10.744,79.488-1.209c35.439,13.436,59.33,37.826,71.01,72.49c11.502,34.145,11.07,76.932-1.283,127.174    c-6.738,27.406,0.434,46,7.639,56.771c3.594,5.375,7.525,9.357,10.85,12.168c0.543,7.635,6.895,13.662,14.668,13.662    c8.131,0,14.721-6.59,14.721-14.721S453.959,480.226,445.828,480.226z" fill="#000000" fill-opacity="1"></path></g><path d="M111.88 238.56L111.88 236.45Q114.12 236.38 115.08 235.42Q116.04 234.46 116.17 233.15Q116.29 231.84 116.29 228.58L116.29 228.58L116.29 200.93Q116.29 198.24 116.49 196.32L116.49 196.32L111.88 196.58L111.88 193.76L126.28 193.76L126.28 195.87Q124.04 195.94 123.08 196.90Q122.12 197.86 121.99 199.17Q121.86 200.48 121.86 203.74L121.86 203.74L121.86 230.94Q121.86 234.34 121.67 236.00L121.67 236.00L126.28 235.74L126.28 238.56L111.88 238.56ZM168.33 239.58L140.55 202.27L140.49 202.27L140.68 229.66Q140.68 233.95 140.55 236.00L140.55 236.00L145.16 235.74L145.16 238.56L133.45 238.56L133.45 236.45Q136.01 236.45 136.84 234.98Q137.67 233.50 137.67 231.39L137.67 231.39L137.73 196.32L133.45 196.58L133.45 193.76L141.06 193.76L168.33 230.24L168.39 230.24L168.45 200.93Q168.45 198.24 168.65 196.32L168.65 196.32L164.04 196.58L164.04 193.76L175.81 193.76L175.81 195.87Q173.89 195.94 172.97 196.61Q172.04 197.28 171.78 198.43Q171.53 199.58 171.53 201.50L171.53 201.50L171.53 203.74L171.40 239.58L168.33 239.58ZM217.09 239.58L189.32 202.27L189.25 202.27L189.45 229.66Q189.45 233.95 189.32 236.00L189.32 236.00L193.93 235.74L193.93 238.56L182.21 238.56L182.21 236.45Q184.77 236.45 185.61 234.98Q186.44 233.50 186.44 231.39L186.44 231.39L186.50 196.32L182.21 196.58L182.21 193.76L189.83 193.76L217.09 230.24L217.16 230.24L217.22 200.93Q217.22 198.24 217.41 196.32L217.41 196.32L212.81 196.58L212.81 193.76L224.58 193.76L224.58 195.87Q222.66 195.94 221.73 196.61Q220.81 197.28 220.55 198.43Q220.29 199.58 220.29 201.50L220.29 201.50L220.29 203.74L220.17 239.58L217.09 239.58ZM252.74 239.58Q245.06 239.58 239.94 236.19Q234.82 232.80 232.39 227.46Q229.96 222.11 229.96 216.16L229.96 216.16Q229.96 210.46 232.49 205.09Q235.01 199.71 240.04 196.22Q245.06 192.74 252.23 192.74L252.23 192.74Q259.59 192.74 264.74 196.22Q269.89 199.71 272.45 205.09Q275.01 210.46 275.01 216.16L275.01 216.16Q275.01 221.79 272.49 227.20Q269.96 232.61 264.93 236.10Q259.91 239.58 252.74 239.58L252.74 239.58ZM252.87 236.96Q257.86 236.96 261.41 234.11Q264.97 231.26 266.79 226.78Q268.61 222.30 268.61 217.38L268.61 217.38Q268.61 211.94 266.63 206.85Q264.65 201.76 260.87 198.53Q257.09 195.30 252.04 195.30L252.04 195.30Q247.05 195.30 243.46 198.14Q239.88 200.99 238.05 205.54Q236.23 210.08 236.23 215.01L236.23 215.01Q236.23 220.06 238.09 225.15Q239.94 230.24 243.72 233.60Q247.49 236.96 252.87 236.96L252.87 236.96ZM297.67 239.20L283.14 205.15Q280.84 199.71 280.39 196.45L280.39 196.45L276.81 196.58L276.81 193.76L291.65 193.76L291.65 195.87L291.59 195.94Q289.48 196.06 288.49 196.86Q287.49 197.66 287.49 199.20L287.49 199.20Q287.49 200.67 288.39 202.85L288.39 202.85L290.05 206.94Q290.69 208.54 292.01 211.81Q293.32 215.07 294.47 217.76L294.47 217.76L296.13 221.66Q298.63 227.36 299.65 230.11L299.65 230.11L299.78 230.11L302.15 223.26L302.98 220.96L308.61 205.15L310.09 201.06Q311.30 197.60 311.94 196.32L311.94 196.32L307.01 196.58L307.01 193.76L320.01 193.76L320.01 195.87Q317.19 196.00 315.69 197.34Q314.18 198.69 312.97 202.14L312.97 202.14L299.46 239.20L297.67 239.20ZM354.18 239.58Q351.17 239.58 348.13 238.75Q345.09 237.92 342.79 236.32L342.79 236.32L343.11 239.07L339.78 239.07L339.40 225.44L341.89 225.44Q342.21 230.94 345.67 233.92Q349.13 236.90 354.44 236.90L354.44 236.90Q358.34 236.90 361.00 234.75Q363.65 232.61 363.65 228.90L363.65 228.90Q363.65 226.14 362.15 224.19Q360.65 222.24 358.44 220.93Q356.23 219.62 352.45 217.89L352.45 217.89Q348.17 215.84 345.64 214.30Q343.11 212.77 341.32 210.24Q339.53 207.71 339.53 204.00L339.53 204.00Q339.53 201.44 340.71 198.88Q341.89 196.32 344.81 194.53Q347.72 192.74 352.52 192.74L352.52 192.74Q355.40 192.74 358.31 193.47Q361.22 194.21 363.65 196.00L363.65 196.00L363.40 193.25L366.66 193.25L366.66 207.33L364.36 207.33Q364.04 202.27 361.13 198.78Q358.21 195.30 352.97 195.30L352.97 195.30Q349.13 195.30 346.95 197.44Q344.77 199.58 344.77 202.78L344.77 202.78Q344.77 205.34 346.25 207.20Q347.72 209.06 349.83 210.27Q351.94 211.49 355.78 213.28L355.78 213.28Q360.13 215.26 362.79 216.86Q365.45 218.46 367.30 221.06Q369.16 223.65 369.16 227.42L369.16 227.42Q369.16 231.01 367.40 233.76Q365.64 236.51 362.25 238.05Q358.85 239.58 354.18 239.58L354.18 239.58ZM396.36 239.58Q389.57 239.58 385.64 237.18Q381.70 234.78 380.01 229.82Q378.31 224.86 378.31 216.74L378.31 216.74L378.31 203.74Q378.31 199.65 378.57 196.32L378.57 196.32L373.96 196.51L373.96 193.76L388.29 193.76L388.29 195.87Q385.48 195.87 384.71 197.34Q383.94 198.82 383.94 200.93L383.94 200.93L383.94 217.06Q383.94 222.62 384.93 226.69Q385.93 230.75 388.84 233.34Q391.75 235.94 397.19 235.94L397.19 235.94Q403.85 235.94 407.08 231.36Q410.31 226.78 410.44 218.91L410.44 218.91L410.63 200.93Q410.63 198.24 410.82 196.32L410.82 196.32L406.28 196.58L406.28 193.76L418.18 193.76L418.18 195.87Q415.88 195.94 414.92 196.90Q413.96 197.86 413.83 199.17Q413.70 200.48 413.70 203.74L413.70 203.74L413.57 218.59Q413.51 227.87 409.45 233.73Q405.38 239.58 396.36 239.58L396.36 239.58ZM444.42 239.58Q438.15 239.58 433.19 236.58Q428.23 233.57 425.45 228.38Q422.66 223.20 422.66 216.86L422.66 216.86Q422.66 210.59 425.19 205.09Q427.72 199.58 432.74 196.16Q437.77 192.74 444.87 192.74L444.87 192.74Q451.91 192.74 457.80 196.64L457.80 196.64L457.48 193.18L460.93 193.18L460.93 208.03L458.63 208.03Q457.99 202.08 454.44 198.72Q450.89 195.36 445.32 195.36L445.32 195.36Q440.77 195.36 437.03 197.89Q433.29 200.42 431.11 205.09Q428.93 209.76 428.93 215.90L428.93 215.90Q428.93 221.79 431.24 226.43Q433.54 231.07 437.45 233.66Q441.35 236.26 446.09 236.26L446.09 236.26Q450.37 236.26 454.34 234.34Q458.31 232.42 460.87 228.90L460.87 228.90L462.53 230.24Q458.82 235.42 454.02 237.50Q449.22 239.58 444.42 239.58L444.42 239.58ZM489.16 239.58Q482.89 239.58 477.93 236.58Q472.97 233.57 470.18 228.38Q467.40 223.20 467.40 216.86L467.40 216.86Q467.40 210.59 469.93 205.09Q472.45 199.58 477.48 196.16Q482.50 192.74 489.61 192.74L489.61 192.74Q496.65 192.74 502.53 196.64L502.53 196.64L502.21 193.18L505.67 193.18L505.67 208.03L503.37 208.03Q502.73 202.08 499.17 198.72Q495.62 195.36 490.05 195.36L490.05 195.36Q485.51 195.36 481.77 197.89Q478.02 200.42 475.85 205.09Q473.67 209.76 473.67 215.90L473.67 215.90Q473.67 221.79 475.97 226.43Q478.28 231.07 482.18 233.66Q486.09 236.26 490.82 236.26L490.82 236.26Q495.11 236.26 499.08 234.34Q503.05 232.42 505.61 228.90L505.61 228.90L507.27 230.24Q503.56 235.42 498.76 237.50Q493.96 239.58 489.16 239.58L489.16 239.58ZM512.71 238.56L512.71 236.45Q514.95 236.38 515.91 235.42Q516.87 234.46 517.00 233.15Q517.13 231.84 517.13 228.58L517.13 228.58L517.13 200.93Q517.13 198.24 517.32 196.32L517.32 196.32L512.71 196.58L512.71 193.76L543.49 193.76L543.81 204.96L541.70 204.96Q541.70 199.71 539.43 197.79Q537.16 195.87 533.06 196.00L533.06 196.00L527.56 196.13Q525.25 196.19 524.23 196.99Q523.21 197.79 522.95 199.23Q522.69 200.67 522.69 203.74L522.69 203.74L522.69 213.98L534.73 214.05L534.28 208.54L537.09 208.54L537.09 221.98L534.98 221.98Q534.98 219.62 534.41 218.37Q533.83 217.12 532.65 216.70Q531.46 216.29 529.35 216.29L529.35 216.29L527.37 216.35L522.69 216.54L522.69 231.20Q522.69 234.53 522.50 236.19L522.50 236.19L534.73 236.00Q539.21 235.94 541.57 233.73Q543.94 231.52 543.94 226.08L543.94 226.08L546.12 226.08L545.73 238.56L512.71 238.56ZM567.49 239.58Q564.49 239.58 561.45 238.75Q558.41 237.92 556.10 236.32L556.10 236.32L556.42 239.07L553.09 239.07L552.71 225.44L555.21 225.44Q555.53 230.94 558.98 233.92Q562.44 236.90 567.75 236.90L567.75 236.90Q571.65 236.90 574.31 234.75Q576.97 232.61 576.97 228.90L576.97 228.90Q576.97 226.14 575.46 224.19Q573.96 222.24 571.75 220.93Q569.54 219.62 565.77 217.89L565.77 217.89Q561.48 215.84 558.95 214.30Q556.42 212.77 554.63 210.24Q552.84 207.71 552.84 204.00L552.84 204.00Q552.84 201.44 554.02 198.88Q555.21 196.32 558.12 194.53Q561.03 192.74 565.83 192.74L565.83 192.74Q568.71 192.74 571.62 193.47Q574.53 194.21 576.97 196.00L576.97 196.00L576.71 193.25L579.97 193.25L579.97 207.33L577.67 207.33Q577.35 202.27 574.44 198.78Q571.53 195.30 566.28 195.30L566.28 195.30Q562.44 195.30 560.26 197.44Q558.09 199.58 558.09 202.78L558.09 202.78Q558.09 205.34 559.56 207.20Q561.03 209.06 563.14 210.27Q565.25 211.49 569.09 213.28L569.09 213.28Q573.45 215.26 576.10 216.86Q578.76 218.46 580.61 221.06Q582.47 223.65 582.47 227.42L582.47 227.42Q582.47 231.01 580.71 233.76Q578.95 236.51 575.56 238.05Q572.17 239.58 567.49 239.58L567.49 239.58ZM603.78 239.58Q600.77 239.58 597.73 238.75Q594.69 237.92 592.39 236.32L592.39 236.32L592.71 239.07L589.38 239.07L589.00 225.44L591.49 225.44Q591.81 230.94 595.27 233.92Q598.73 236.90 604.04 236.90L604.04 236.90Q607.94 236.90 610.60 234.75Q613.25 232.61 613.25 228.90L613.25 228.90Q613.25 226.14 611.75 224.19Q610.25 222.24 608.04 220.93Q605.83 219.62 602.05 217.89L602.05 217.89Q597.77 215.84 595.24 214.30Q592.71 212.77 590.92 210.24Q589.13 207.71 589.13 204.00L589.13 204.00Q589.13 201.44 590.31 198.88Q591.49 196.32 594.41 194.53Q597.32 192.74 602.12 192.74L602.12 192.74Q605.00 192.74 607.91 193.47Q610.82 194.21 613.25 196.00L613.25 196.00L613.00 193.25L616.26 193.25L616.26 207.33L613.96 207.33Q613.64 202.27 610.73 198.78Q607.81 195.30 602.57 195.30L602.57 195.30Q598.73 195.30 596.55 197.44Q594.37 199.58 594.37 202.78L594.37 202.78Q594.37 205.34 595.85 207.20Q597.32 209.06 599.43 210.27Q601.54 211.49 605.38 213.28L605.38 213.28Q609.73 215.26 612.39 216.86Q615.05 218.46 616.90 221.06Q618.76 223.65 618.76 227.42L618.76 227.42Q618.76 231.01 617.00 233.76Q615.24 236.51 611.85 238.05Q608.45 239.58 603.78 239.58L603.78 239.58Z" data-element="company-name" data-text-path="" data-text="INNOV SUCCESS" data-font-family="Lora" fill="#000000" fill-opacity="1"></path><path d="M129.72 259.13L129.72 279.55Q129.72 280.93 127.99 280.93L127.99 280.93Q126.29 280.93 126.29 279.55L126.29 279.55L126.29 259.13Q126.29 257.75 127.99 257.75L127.99 257.75Q129.72 257.75 129.72 259.13L129.72 259.13ZM147.09 274.71L147.09 259.13Q147.09 257.75 148.79 257.75L148.79 257.75Q150.48 257.75 150.48 259.13L150.48 259.13L150.48 279.00Q150.48 280.01 149.42 280.47L149.42 280.47L149.45 280.47Q148.99 280.67 148.47 280.79Q147.95 280.90 147.46 280.90L147.46 280.90Q147.09 280.90 146.68 280.83Q146.28 280.76 145.92 280.60Q145.56 280.44 145.26 280.17Q144.96 279.89 144.78 279.49L144.78 279.49L138.53 263.91L137.76 264.00L137.76 279.55Q137.76 280.93 136.03 280.93L136.03 280.93Q134.33 280.93 134.33 279.55L134.33 279.55L134.33 259.71Q134.33 258.52 135.36 258.12L135.36 258.12Q136.32 257.75 137.38 257.75L137.38 257.75Q138.13 257.75 138.89 258.05Q139.66 258.35 140.06 259.19L140.06 259.19L146.28 274.80L147.09 274.71ZM166.61 275.92L166.61 270.36Q166.61 268.95 168.34 268.95L168.34 268.95Q170.04 268.95 170.04 270.30L170.04 270.30L170.04 276.15Q170.04 278.48 168.48 279.64L168.48 279.64Q167.74 280.18 166.94 280.48Q166.15 280.79 165.40 280.79L165.40 280.79L159.41 280.79Q158.66 280.79 157.87 280.48Q157.08 280.18 156.33 279.64L156.33 279.64Q155.58 279.06 155.18 278.21Q154.78 277.36 154.78 276.15L154.78 276.15L154.78 262.47Q154.78 261.29 155.19 260.43Q155.61 259.56 156.33 259.01L156.33 259.01L156.30 259.01Q157.05 258.52 157.86 258.21Q158.66 257.89 159.41 257.89L159.41 257.89L165.12 257.89Q165.86 257.89 166.67 258.21Q167.48 258.52 168.23 259.01L168.23 259.01L168.20 259.01Q169.72 260.14 169.72 262.47L169.72 262.47L169.72 264.46Q169.72 265.84 168.02 265.84L168.02 265.84Q166.32 265.84 166.32 264.46L166.32 264.46L166.32 262.73Q166.32 262.01 165.89 261.40Q165.46 260.80 164.40 260.80L164.40 260.80L160.16 260.80Q159.07 260.80 158.64 261.40Q158.20 262.01 158.20 262.73L158.20 262.73L158.20 275.92Q158.20 276.29 158.30 276.64Q158.40 276.99 158.64 277.26Q158.87 277.53 159.24 277.71Q159.61 277.88 160.16 277.88L160.16 277.88L164.68 277.88Q165.75 277.88 166.18 277.27Q166.61 276.67 166.61 275.92L166.61 275.92ZM165.26 270.04L165.26 270.04Q165.26 270.53 165.07 270.98Q164.88 271.43 164.55 271.74Q164.22 272.06 163.79 272.25Q163.36 272.44 162.84 272.44L162.84 272.44Q161.86 272.44 161.17 271.74Q160.48 271.05 160.48 270.04L160.48 270.04Q160.48 269.07 161.17 268.37Q161.86 267.68 162.84 267.68L162.84 267.68Q163.36 267.68 163.79 267.87Q164.22 268.06 164.55 268.37Q164.88 268.69 165.07 269.12Q165.26 269.56 165.26 270.04ZM186.86 280.79L176.32 280.79Q175.25 280.79 174.88 280.24Q174.50 279.69 174.50 279.03L174.50 279.03L174.50 259.62Q174.50 258.96 174.88 258.42Q175.25 257.89 176.32 257.89L176.32 257.89L186.34 257.89Q187.41 257.89 187.46 259.33L187.46 259.33Q187.52 260.80 186.34 260.80L186.34 260.80L177.90 260.80L177.90 277.88L186.86 277.88Q187.92 277.88 187.95 279.29L187.95 279.29Q188.01 280.79 186.86 280.79L186.86 280.79ZM185.28 268.86L185.28 268.86Q185.28 269.87 184.57 270.56Q183.86 271.25 182.86 271.25L182.86 271.25Q181.88 271.25 181.19 270.56Q180.49 269.87 180.49 268.86L180.49 268.86Q180.49 267.86 181.19 267.16Q181.88 266.47 182.86 266.47L182.86 266.47Q183.86 266.47 184.57 267.16Q185.28 267.86 185.28 268.86ZM203.82 274.71L203.82 259.13Q203.82 257.75 205.52 257.75L205.52 257.75Q207.22 257.75 207.22 259.13L207.22 259.13L207.22 279.00Q207.22 280.01 206.16 280.47L206.16 280.47L206.18 280.47Q205.72 280.67 205.20 280.79Q204.69 280.90 204.20 280.90L204.20 280.90Q203.82 280.90 203.42 280.83Q203.02 280.76 202.66 280.60Q202.30 280.44 201.99 280.17Q201.69 279.89 201.52 279.49L201.52 279.49L195.27 263.91L194.49 264.00L194.49 279.55Q194.49 280.93 192.76 280.93L192.76 280.93Q191.06 280.93 191.06 279.55L191.06 279.55L191.06 259.71Q191.06 258.52 192.10 258.12L192.10 258.12Q193.05 257.75 194.12 257.75L194.12 257.75Q194.87 257.75 195.63 258.05Q196.39 258.35 196.80 259.19L196.80 259.19L203.02 274.80L203.82 274.71ZM215.05 259.13L215.05 279.55Q215.05 280.93 213.33 280.93L213.33 280.93Q211.63 280.93 211.63 279.55L211.63 279.55L211.63 259.13Q211.63 257.75 213.33 257.75L213.33 257.75Q215.05 257.75 215.05 259.13L215.05 259.13ZM232.05 280.79L221.51 280.79Q220.44 280.79 220.07 280.24Q219.69 279.69 219.69 279.03L219.69 279.03L219.69 259.62Q219.69 258.96 220.07 258.42Q220.44 257.89 221.51 257.89L221.51 257.89L231.53 257.89Q232.59 257.89 232.65 259.33L232.65 259.33Q232.71 260.80 231.53 260.80L231.53 260.80L223.09 260.80L223.09 277.88L232.05 277.88Q233.11 277.88 233.14 279.29L233.14 279.29Q233.20 280.79 232.05 280.79L232.05 280.79ZM230.46 268.86L230.46 268.86Q230.46 269.87 229.76 270.56Q229.05 271.25 228.04 271.25L228.04 271.25Q227.06 271.25 226.37 270.56Q225.68 269.87 225.68 268.86L225.68 268.86Q225.68 267.86 226.37 267.16Q227.06 266.47 228.04 266.47L228.04 266.47Q229.05 266.47 229.76 267.16Q230.46 267.86 230.46 268.86ZM249.84 280.41L244.40 271.28L242.18 271.28Q241.69 271.28 241.42 270.89Q241.15 270.51 241.15 269.84L241.15 269.84Q241.15 268.37 242.36 268.37L242.36 268.37L245.73 268.37Q246.79 268.37 247.22 267.77Q247.66 267.16 247.66 266.44L247.66 266.44L247.66 262.73Q247.66 262.01 247.22 261.40Q246.79 260.80 245.73 260.80L245.73 260.80L239.65 260.80L239.65 279.58Q239.65 280.96 237.95 280.96L237.95 280.96Q236.25 280.96 236.25 279.58L236.25 279.58L236.25 259.62Q236.25 258.58 236.78 258.24Q237.32 257.89 238.07 257.89L238.07 257.89L246.45 257.89Q247.20 257.89 248.00 258.21Q248.81 258.52 249.56 259.01L249.56 259.01L249.53 259.01Q250.28 259.56 250.68 260.44Q251.08 261.32 251.08 262.47L251.08 262.47L251.08 266.68Q251.08 269.01 249.53 270.16L249.53 270.16Q249.21 270.39 248.85 270.59Q248.49 270.79 248.12 271.00L248.12 271.00L252.72 278.60Q252.81 278.74 252.90 278.97Q252.98 279.20 252.98 279.35L252.98 279.35Q252.98 280.04 252.00 280.67L252.00 280.67L252.00 280.64Q251.34 281.05 250.88 281.05L250.88 281.05Q250.22 281.05 249.82 280.38L249.82 280.38L249.84 280.41ZM259.20 259.13L259.20 279.55Q259.20 280.93 257.48 280.93L257.48 280.93Q255.78 280.93 255.78 279.55L255.78 279.55L255.78 259.13Q255.78 257.75 257.48 257.75L257.48 257.75Q259.20 257.75 259.20 259.13L259.20 259.13ZM276.20 280.79L265.66 280.79Q264.59 280.79 264.22 280.24Q263.84 279.69 263.84 279.03L263.84 279.03L263.84 259.62Q263.84 258.96 264.22 258.42Q264.59 257.89 265.66 257.89L265.66 257.89L275.68 257.89Q276.74 257.89 276.80 259.33L276.80 259.33Q276.86 260.80 275.68 260.80L275.68 260.80L267.24 260.80L267.24 277.88L276.20 277.88Q277.26 277.88 277.29 279.29L277.29 279.29Q277.35 280.79 276.20 280.79L276.20 280.79ZM274.61 268.86L274.61 268.86Q274.61 269.87 273.91 270.56Q273.20 271.25 272.19 271.25L272.19 271.25Q271.21 271.25 270.52 270.56Q269.83 269.87 269.83 268.86L269.83 268.86Q269.83 267.86 270.52 267.16Q271.21 266.47 272.19 266.47L272.19 266.47Q273.20 266.47 273.91 267.16Q274.61 267.86 274.61 268.86Z" data-element="slogan" data-text-path="" data-text="INGENIERIE" data-font-family="Gugi" fill="#000000" fill-opacity="1"></path></g></g></svg>